# xmcd
# 
# Track frame offsets:
#     150
#     17645
#     40003
#     57465
# 
# Disc length: 986
# 
# Revision: 0
# Processed by: cddbd v1.5.2PL0 Copyright (c) Steve Scherf et al.
# Submitted via: BonkEnc v1.0
# 
DISCID=2a03d804
DTITLE=Sharon Williams - Live is so Strong
DYEAR=2000
DGENRE=Dance
TTITLE0=Live is so Strong (Single Edit)
TTITLE1=Live is so Strong (Maxi Version)
TTITLE2=Live is so Strong (Instrumental Version)
TTITLE3=Live is so Strong (Dance Radio Version)
EXTD=Gut
EXTT0=
EXTT1=
EXTT2=
EXTT3=
PLAYORDER=
